<?xml version="1.0" encoding="UTF-8"?>
<svg width="20px" height="20px" viewBox="0 0 20 20" version="1.1" xmlns="http://www.w3.org/2000/svg" xmlns:xlink="http://www.w3.org/1999/xlink">
    <!-- Generator: Sketch 50.2 (55047) - http://www.bohemiancoding.com/sketch -->
    <title>Group 8</title>
    <desc>Created with Sketch.</desc>
    <defs></defs>
    <g id="Page-1" stroke="none" stroke-width="1" fill="none" fill-rule="evenodd">
        <g id="web_3" transform="translate(-710.000000, -523.000000)" stroke="#939393">
            <g id="body" transform="translate(276.000000, 40.000000)">
                <g id="Group-5" transform="translate(0.000000, 55.000000)">
                    <g id="Group-19" transform="translate(25.000000, 411.000000)">
                        <g id="Group-4" transform="translate(409.000000, 12.000000)">
                            <g id="Group-12" transform="translate(0.000000, 2.000000)">
                                <g id="Group-8" transform="translate(0.000000, 3.000000)">
                                    <circle id="Oval" fill-rule="nonzero" cx="10" cy="10" r="9.5"></circle>
                                    <g id="Group" transform="translate(5.000000, 3.700000)">
                                        <g id="gift">
                                            <path d="M9.29920947,2.97448387 C9.44208374,2.70958998 9.60836412,2.40604931 9.60836412,2.08359389 C9.60839296,1.0549299 8.69638566,0.0777941111 7.67985244,0.0777941111 C6.51324797,0.0777941111 6.15865836,0.611192488 5.56924794,1.2966474 C5.42337369,1.46626706 5.29345128,1.64855493 5.18109609,1.83840285 C5.0687409,1.64855493 4.93881849,1.46626706 4.79294425,1.2966474 C4.20353382,0.611192488 3.94314393,0.0777941111 2.68233974,0.0777941111 C1.66580652,0.0777941111 0.744074074,1.05495909 0.744074074,2.08359389 C0.744074074,2.40602012 0.920050752,2.70958998 1.06295386,2.97448387 L9.29920947,2.97448387 Z M2.68233974,0.982571302 C3.55634485,0.982571302 4.38731172,2.09740048 4.62912778,2.97445469 L2.68233974,2.97445469 C2.19691917,2.97445469 1.70727103,2.57485166 1.70727103,2.0835647 C1.70729988,1.59236531 2.19691917,0.982571302 2.68233974,0.982571302 Z M7.67985244,0.982571302 C8.16527301,0.982571302 8.64519601,1.5923945 8.64519601,2.08359389 C8.64519601,2.57482247 8.16527301,2.97448387 7.67985244,2.97448387 L5.7330644,2.97448387 C5.97488046,2.09740048 6.80581848,0.982571302 7.67985244,0.982571302 Z" id="Shape" stroke-width="0.1" fill="#939393" fill-rule="nonzero"></path>
                                            <rect id="Rectangle" stroke-width="0.875" fill="#939393" x="5.119318" y="4.26643525" width="1" height="6.873109"></rect>
                                            <path d="M1.50537037,6.50303 L8.8520209,6.50303 L8.8520209,10.0212413 C8.8520209,10.5590131 8.79769692,10.8403258 8.64099576,11.1333315 C8.4952587,11.4058361 8.27840591,11.6226889 8.00590129,11.7684259 C7.71289561,11.9251271 7.43158294,11.9794511 6.89381111,11.9794511 L3.46358016,11.9794511 C2.92580832,11.9794511 2.64449566,11.9251271 2.35148998,11.7684259 C2.07898536,11.6226889 1.86213257,11.4058361 1.7163955,11.1333315 C1.55969435,10.8403258 1.50537037,10.5590131 1.50537037,10.0212413 L1.50537037,6.50303 Z" id="Rectangle-19"></path>
                                            <rect id="Rectangle-2" x="-0.282222222" y="3.3801007" width="10.9166667" height="2.87314812" rx="0.787500031"></rect>
                                        </g>
                                    </g>
                                </g>
                            </g>
                        </g>
                    </g>
                </g>
            </g>
        </g>
    </g>
</svg>